<svg xmlns="http://www.w3.org/2000/svg" height="52" width="52" viewBox="0 0 520 520" fill="#fff"><path d="M93 187a74 74 0 0 0-73 74c0 19 7 38 21 51a74 74 0 0 0 52 22 71 71 0 0 0 67-50h106c-6 66-43 116-106 119a73 73 0 0 0-27-33 73 73 0 0 0-40-13 72 72 0 0 0-28 4 72 72 0 0 0-39 38 69 69 0 0 0-6 27c0 20 8 38 21 52a74 74 0 0 0 52 22 73 73 0 0 0 67-47 154 154 0 0 0 127-73c16-30 26-64 30-98h43v-46h-43c-4-34-13-66-27-97a141 141 0 0 0-55-55c-23-13-49-19-75-18a73 73 0 0 0-67-47c-19 1-38 8-52 22a74 74 0 0 0-21 51c0 10 2 19 6 28a71 71 0 0 0 39 38c9 3 19 4 28 4a73 73 0 0 0 67-46c66 0 100 46 106 119H160a70 70 0 0 0-26-35 72 72 0 0 0-41-13m0 97-10-1a24 24 0 0 1-15-13 24 24 0 0 1 0-19l6-8 9-5 10-1c6 0 12 3 17 7a23 23 0 0 1 0 33c-5 4-11 7-17 7m0 169a29 29 0 0 1-26-26c0-7 3-13 8-17s12-7 18-6a22 22 0 0 1 23 23 26 26 0 0 1-23 26m0-335a26 26 0 0 1-26-23 29 29 0 0 1 26-26 26 26 0 0 1 22 26 22 22 0 0 1-22 23"/><path d="M486 250c7 4 7 14 0 17l-116 62a10 10 0 0 1-14-9l2-127c0-7 8-11 15-8z"/></svg>