<svg xmlns="http://www.w3.org/2000/svg" height="52" width="52" viewBox="0 0 520 520" fill="#fff"><path d="M213 149a60 60 0 0 0-60 60 60 60 0 0 0 60 60 60 60 0 0 0 60-60 60 60 0 0 0-60-60m41 71c0 4-1 8-3 8h-77c-1 0-3-4-3-8v-15c0-4 1-8 3-8h77c1 0 3 4 3 8zm152 22V125c0-20-16-36-36-36H56c-20 0-36 16-36 36v175c0 20 16 36 36 36h256a94 94 0 1 0 188 0 94 94 0 0 0-94-94m-87 58H98a42 42 0 0 0-42-42v-90a42 42 0 0 0 42-42h229a42 42 0 0 0 42 42v81a94 94 0 0 0-51 51zm142 47c0 6-2 11-4 11h-32v32c0 2-5 4-11 4h-21c-6 0-11-2-11-4v-32h-32c-2 0-4-5-4-11v-21c0-6 2-11 4-11h32v-32c0-2 5-4 11-4h21c6 0 11 2 11 4v32h32c2 0 4 5 4 11z"/></svg>