<svg xmlns="http://www.w3.org/2000/svg" height="52" width="52" viewBox="0 0 520 520" fill="#fff"><path d="M333 20c-19 0-35 16-35 35s16 35 35 35 35-16 35-35-16-35-35-35M20 195c0-19 16-35 35-35s35 16 35 35-16 35-35 35-35-16-35-35m410 0c0-19 16-35 35-35s35 16 35 35-16 35-35 35-35-16-35-35M55 300c-19 0-35 16-35 35s16 35 35 35 35-16 35-35-16-35-35-35m375 35c0-19 16-35 35-35s35 16 35 35-16 35-35 35-35-16-35-35M20 55c0-19 16-35 35-35s35 16 35 35-16 35-35 35-35-16-35-35m445-35c-19 0-35 16-35 35s16 35 35 35 35-16 35-35-16-35-35-35M160 55c0-19 16-35 35-35s35 16 35 35-16 35-35 35-35-16-35-35M20 490c0 6 4 10 10 10h460c6 0 10-4 10-10v-50c0-6-4-10-10-10H30c-6 0-10 4-10 10z"/></svg>