<svg xmlns="http://www.w3.org/2000/svg" height="52" width="52" viewBox="0 0 520 520" fill="#fff"><path d="M343.2 98.2c-16 0-30.4 1.6-44 6.4a210.2 210.2 0 0 1 43.2 48.8h.8c56 0 101.6 45.6 101.6 101.6s-45.6 101.6-101.6 101.6c-13.6 0-28-2.4-40-8a218.6 218.6 0 0 0 18.4-32c1.6-4.8 4-8 4.8-12.8 4.8-14.4 7.2-31.2 7.2-48A157 157 0 0 0 176.8 99a156.4 156.4 0 1 0 0 312.8c16 0 30.4-1.6 44-6.4a210.2 210.2 0 0 1-43.2-48.8h-.8c-56 0-101.6-45.6-101.6-101.6s45.6-101.6 101.6-101.6c13.6 0 28 2.4 40.8 8a156.6 156.6 0 0 0-31.2 93.6c0 86.4 70.4 156.8 156.8 156.8S500 341.4 500 255 429.6 98.2 343.2 98.2"/></svg>