<?xml version="1.0" encoding="UTF-8"?><svg id="Layer_1" xmlns="http://www.w3.org/2000/svg" width="52" height="52" viewBox="0 0 52 52"><path d="M12.35,25.33c.48-.24,1.11-.24,1.59,0l9.31,4.69c.64.33,1.03.98,1.04,1.67v10.92c0,.73-.4,1.38-1.04,1.67l-9.31,4.69c-.52.24-1.11.24-1.63,0l-9.27-4.69c-.64-.33-1.04-.98-1.04-1.67v-10.92c0-.73.4-1.38,1.04-1.67l9.31-4.69ZM38.06,25.33c.48-.24,1.11-.24,1.59,0l9.31,4.69c.64.33,1.04.98,1.04,1.67v10.92c0,.73-.4,1.39-1.04,1.67l-9.31,4.69c-.52.24-1.11.24-1.63,0l-9.27-4.69c-.64-.33-1.03-.98-1.03-1.67v-10.92c0-.73.4-1.39,1.03-1.67l9.31-4.69ZM24.35,3.04c.48-.24,1.11-.24,1.59,0l9.31,4.69c.64.33,1.04.98,1.04,1.67v10.92c0,.73-.4,1.39-1.04,1.67l-9.31,4.69c-.52.24-1.11.24-1.63,0l-9.27-4.69c-.64-.33-1.04-.98-1.04-1.67v-10.92c0-.73.4-1.39,1.04-1.67l9.31-4.69Z" fill="#fff"/></svg>