<?xml version="1.0" encoding="UTF-8"?><svg id="Layer_1" xmlns="http://www.w3.org/2000/svg" width="52" height="52" viewBox="0 0 52 52"><path d="M44.39,29.76v-.32c0-7.2-4.24-13.44-10.32-16.48v-.72c0-4.4-3.6-8-8-8s-8,3.6-8,8v.72c-6.08,2.96-10.32,9.28-10.32,16.48v.32c-3.28.96-5.76,4-5.76,7.68,0,4.4,3.6,8,8,8,1.76,0,3.44-.56,4.8-1.6,3.12,2.4,7.04,3.92,11.2,3.92s8.08-1.44,11.2-3.92c1.36.96,2.96,1.6,4.8,1.6,4.4,0,8-3.6,8-8,.16-3.6-2.24-6.72-5.6-7.68ZM17.28,41.04c.56-1.12.88-2.32.88-3.6,0-3.92-2.88-7.2-6.64-7.84v-.16c0-5.6,3.2-10.48,7.84-12.96,1.44,2.24,3.92,3.76,6.8,3.76s5.36-1.52,6.8-3.76c4.64,2.48,7.84,7.36,7.84,12.96v.16c-3.76.64-6.64,3.92-6.64,7.84,0,1.28.32,2.48.88,3.6-2.48,1.92-5.52,3.04-8.88,3.04s-6.4-1.2-8.88-3.04Z" fill="#fff"/></svg>