<svg xmlns="http://www.w3.org/2000/svg" height="52" width="52" viewBox="0 0 520 520" fill="#fff"><path d="M213 149a60 60 0 0 0-60 60 60 60 0 0 0 60 60 60 60 0 0 0 60-60 60 60 0 0 0-60-60m41 71c0 4-1 8-3 8h-77c-1 0-3-4-3-8v-15c0-4 1-8 3-8h77c1 0 3 4 3 8zm152 22V125c0-20-16-36-36-36H56c-20 0-36 16-36 36v175c0 20 16 36 36 36h256a94 94 0 1 0 188 0 94 94 0 0 0-94-94m-87 58H98a42 42 0 0 0-42-42v-90a42 42 0 0 0 42-42h229a42 42 0 0 0 42 42v81a94 94 0 0 0-51 51zm140 25-54 55c-6 7-17 7-24 0l-31-32c-6-6-6-17 0-23l4-4c6-6 17-6 23 0l16 16 38-39c6-6 17-6 23 0l4 4c6 6 6 17 0 23z"/></svg>