<svg xmlns="http://www.w3.org/2000/svg" height="52" width="52" viewBox="0 0 520 520" fill="#fff"><path d="M213 149a60 60 0 0 0-60 60 60 60 0 0 0 60 60 60 60 0 0 0 60-60 60 60 0 0 0-60-60m41 71c0 4-1 8-3 8h-77c-1 0-3-4-3-8v-15c0-4 1-8 3-8h77c1 0 3 4 3 8zm152 22V125c0-20-16-36-36-36H56c-20 0-36 16-36 36v175c0 20 16 36 36 36h256a94 94 0 1 0 188 0 94 94 0 0 0-94-94m-87 58H98a42 42 0 0 0-42-42v-90a42 42 0 0 0 42-42h229a42 42 0 0 0 42 42v81a94 94 0 0 0-51 51zm101 88v15c0 3-3 4-5 4h-17c-3 0-3-2-3-4v-14c-13-3-24-8-26-11-3-3-4-6-2-10l5-9c1-2 4-3 6-3l4 1c9 5 16 8 22 8s11-3 11-6-2-7-18-12c-15-5-32-14-32-34s8-25 29-30v-13c0-3 1-4 3-4h17c3 0 5 2 5 4v12c9 2 18 6 21 9a6 6 0 0 1 3 5c0 2 0 4-2 5l-8 8-7 4-4-1c-9-5-16-8-21-8-7 0-10 3-10 5 0 3 2 6 16 12 18 6 38 16 38 36 0 14-11 26-28 31z"/></svg>