<svg xmlns="http://www.w3.org/2000/svg" height="52" width="52" viewBox="0 0 520 520" fill="#fff"><path d="M260 20a240 240 0 1 0 0 480 240 240 0 0 0 0-480m0 433a193 193 0 1 1 0-386 193 193 0 0 1 0 386M157 231v2c7 7 18 7 25 0l22-22c9-9 9-25 0-34l-22-22c-7-7-18-7-25 0s-7 18 0 26l13 12-13 13c-7 7-7 18 0 25m172 4v-2c7 7 18 7 25 0s7-18 0-25l-13-13 13-13c7-7 7-18 0-25s-18-7-25 0l-22 22c-9 9-9 25 0 34zm25 101a118 118 0 0 0-200 18c-6 9 0 20 7 23l9 2c7 0 12-3 16-9 12-25 38-41 67-45 29-2 56 11 72 33l11 14c5 7 18 9 25 4 7-6 9-18 4-26z"/></svg>