<?xml version="1.0" encoding="UTF-8"?><svg id="Layer_1" xmlns="http://www.w3.org/2000/svg" width="52" height="52" viewBox="0 0 52 52"><path d="M20.48,23.6c.32-3.36,1.28-6.64,2.88-9.44,2.64-4.56,6.88-7.2,12.64-7.36.57-1.6,1.68-2.95,3.15-3.81,1.47-.86,3.19-1.17,4.86-.89,1.67.29,3.19,1.16,4.29,2.46,1.09,1.3,1.7,2.94,1.7,4.64s-.6,3.34-1.7,4.64c-1.09,1.3-2.61,2.17-4.29,2.46-1.67.29-3.4-.03-4.86-.89-1.46-.86-2.58-2.21-3.15-3.81-6.48.24-10,5.28-10.72,12h10.72c.57-1.6,1.68-2.95,3.15-3.81,1.47-.86,3.19-1.17,4.86-.89,1.67.29,3.19,1.16,4.29,2.46,1.09,1.3,1.7,2.94,1.7,4.64s-.6,3.34-1.7,4.64c-1.09,1.3-2.61,2.17-4.29,2.46-1.67.29-3.4-.03-4.86-.89-1.46-.86-2.58-2.21-3.15-3.81h-10.72c.56,7.2,3.92,12.08,10.72,12,.57-1.6,1.68-2.95,3.15-3.81,1.47-.86,3.19-1.17,4.86-.89,1.67.29,3.19,1.16,4.29,2.46,1.09,1.3,1.7,2.94,1.7,4.64s-.6,3.34-1.7,4.64c-1.09,1.3-2.61,2.17-4.29,2.46-1.67.29-3.4-.03-4.86-.89-1.46-.86-2.58-2.21-3.15-3.81-5.92.08-10.24-2.64-12.88-7.28-1.52-2.8-2.4-6.08-2.64-9.52h-4.48c-.57,1.6-1.68,2.95-3.15,3.81s-3.19,1.17-4.86.89c-1.67-.29-3.19-1.16-4.29-2.46-1.09-1.3-1.7-2.94-1.7-4.64s.6-3.34,1.7-4.64c1.09-1.3,2.61-2.17,4.29-2.46,1.67-.29,3.4.03,4.86.89s2.58,2.21,3.15,3.81h4.48ZM42.8,11.6c1.36,0,2.4-1.04,2.4-2.4s-1.04-2.4-2.4-2.4-2.4,1.04-2.4,2.4,1.04,2.4,2.4,2.4ZM42.8,45.2c1.36,0,2.4-1.04,2.4-2.4s-1.04-2.4-2.4-2.4-2.4,1.04-2.4,2.4,1.04,2.4,2.4,2.4ZM42.8,28.4c1.36,0,2.4-1.04,2.4-2.4s-1.04-2.4-2.4-2.4-2.4,1.04-2.4,2.4,1.04,2.4,2.4,2.4ZM9.2,28.4c1.36,0,2.4-1.04,2.4-2.4s-1.04-2.4-2.4-2.4-2.4,1.04-2.4,2.4,1.04,2.4,2.4,2.4Z" fill="#fff"/></svg>