<?xml version="1.0" encoding="UTF-8"?><svg id="Layer_1" xmlns="http://www.w3.org/2000/svg" width="52" height="52" viewBox="0 0 52 52"><path d="M30.14,27.56c-2.54-1.11-3.61-2.01-3.93-2.81-.17-.43-.22-.86-.22-1.3,0-1.39.96-2.79,2.02-3.87,1.93-1.82,2.99-4.41,2.99-7.41,0-5.59-3.28-10.43-9.26-10.43s-9.26,4.84-9.26,10.43c0,3,1.06,5.59,2.99,7.41,1.06,1.07,2.02,2.47,2.02,3.87s-.48,2.79-3.87,4.19c-4.83,2.15-9.55,4.62-9.55,9.13v1.39c0,2.36,1.74,4.3,3.96,4.3h17.6c2.22,0,1.9-1.93,1.9-4.3v-3.61c0-.09.01-.19.03-.28.21-1.18,1.29-2,2.49-2.01,2.53-.01,7.09-.03,7.71-.03.02-.23-1.11-1.08-1.45-1.33-.25-.18-.8-.59-1-.72-.39-.25-1.95-1.12-2.48-1.37-1.07-.52-1.34-.65-2.7-1.25h.01ZM47.3,34.66h-4.41s.04.28.04.4c0,1.55-1.23,2.77-2.77,2.77h-2.38c-1.55,0-2.77-1.23-2.77-2.77,0-.12,0-.4.04-.4h-3.62c-.87,0-1.58.71-1.58,1.59v11.91c0,.87.71,1.58,1.58,1.58h15.87c.87,0,1.58-.71,1.58-1.58v-11.91c0-.87-.71-1.59-1.58-1.59ZM37.66,46.56h-4.53c-.52,0-.91-.48-.91-.99,0-.79.83-1.23,1.7-1.58.59-.24.67-.48.67-.75,0-.24-.16-.48-.36-.67-.36-.32-.55-.79-.55-1.31,0-.99.59-1.82,1.66-1.82s1.66.83,1.66,1.82c0,.52-.2.99-.55,1.31-.2.2-.36.44-.36.67s.08.48.67.75c.87.36,1.7.79,1.7,1.58.08.52-.32.99-.83.99h.02ZM47.3,41.8c0,.24-.16.4-.4.4h-6.35c-.24,0-.4-.16-.4-.4v-.79c0-.24.16-.4.4-.4h6.35c.24,0,.4.16.4.4v.79ZM37.78,36.24h2.38c.67,0,1.19-.52,1.19-1.19s-.52-1.19-1.19-1.19h-2.38c-.67,0-1.19.52-1.19,1.19s.52,1.19,1.19,1.19Z" fill="#fff" fill-rule="evenodd"/></svg>