<svg xmlns="http://www.w3.org/2000/svg" height="52" width="52" viewBox="0 0 520 520" fill="#fff"><path fill-rule="evenodd" d="M170 407.1a151.5 151.5 0 0 0 90-29.4 152 152 0 0 0 90 29.4c29.7 0 58.7-8.6 83.3-24.8 24.7-16.2 43.9-39.1 55.2-66s14.3-56.5 8.5-85-20.1-54.7-41.1-75.3-47.7-34.6-76.8-40.3a152 152 0 0 0-119.3 26.6 151 151 0 0 0-60.7-26.6 152 152 0 0 0-154 62.6A145 145 0 0 0 19.8 260c0 39 15.8 76.4 43.9 104s66.3 43.1 106.1 43.1ZM290 355v-6.8a144 144 0 0 0 0-176.6v-5.1a115.5 115.5 0 0 1 104.4-8.6 113.3 113.3 0 0 1 50.8 41.1 110.4 110.4 0 0 1 10.3 104.6 113.4 113.4 0 0 1-24.8 36.2 113 113 0 0 1-37.1 24 116.4 116.4 0 0 1-103.6-9Zm-60-183.3v-5.9q-7.5-4.5-15.6-7.8a114.7 114.7 0 0 0-123.7 23.8 111 111 0 0 0-31.3 56.9 109 109 0 0 0 6.2 64.3 111.4 111.4 0 0 0 41.5 50.1 115.1 115.1 0 0 0 122.9 2.8v-7.6a144.9 144.9 0 0 1-30-88.3 145 145 0 0 1 30-88.2Z"/></svg>