<svg xmlns="http://www.w3.org/2000/svg" height="52" width="52" viewBox="0 0 520 520" fill="#fff"><path d="M167.1 407.1A146.7 146.7 0 0 0 303 316.3 146.6 146.6 0 0 0 271.1 156a147.3 147.3 0 0 0-160.3-31.9 146.4 146.4 0 0 0-66 54.2A147 147 0 0 0 20 260a147 147 0 0 0 147.1 147.1m0-34.9c-22-.1-43.5-6.8-61.7-19.1A111.5 111.5 0 0 1 64.7 303a111.4 111.4 0 0 1 24.7-121.2 112 112 0 0 1 57.1-30.3 111.4 111.4 0 0 1 99.9 188.4 112 112 0 0 1-36.3 24 112 112 0 0 1-42.8 8.2Z"/><path d="M352.9 407.1a146.7 146.7 0 0 0 135.9-90.8 147.3 147.3 0 0 0-107.2-200.6 146.4 146.4 0 0 0-151 62.6 147 147 0 0 0-24.8 81.7 147 147 0 0 0 147.1 147.1m0-34.9c-22-.1-43.5-6.8-61.7-19.1a111.5 111.5 0 0 1-40.7-50.1 111.4 111.4 0 0 1 24.7-121.2 112 112 0 0 1 57.1-30.3 111.4 111.4 0 0 1 99.9 188.4 111 111 0 0 1-36.4 24 112 112 0 0 1-42.8 8.2Z"/></svg>