<svg xmlns="http://www.w3.org/2000/svg" height="52" width="52" viewBox="0 0 520 520" fill="#fff"><path d="M425 234c-6 0-11-6-11-11V31c0-5 5-11 11-11h22c6 0 11 6 11 11v191c0 5-5 11-11 11h-22zm-90 0c-6 0-11-6-11-11V31c0-5 5-11 11-11h22c6 0 11 6 11 11v191c0 5-5 11-11 11h-22zm83 103 59 47c18 13 19 40 0 55l-50 50c-8 8-18 12-29 12-98-5-191-49-256-114A410 410 0 0 1 29 129c0-11 4-21 12-29l50-50c16-16 42-14 57 3l47 59c11 13 12 33 0 46l-36 50c-4 7-4 14 2 20l67 75 75 67c6 6 14 7 20 2l50-36c13-11 33-10 46 0z"/></svg>