<svg xmlns="http://www.w3.org/2000/svg" height="52" width="52" viewBox="0 0 520 520" fill="#fff"><path d="M483 149H164c-9 0-16-7-16-16v-32c0-9 7-16 16-16h319c9 0 16 7 16 16v32c0 9-7 16-16 16m0 143H164c-9 0-16-7-16-16v-32c0-9 7-16 16-16h319c9 0 16 7 16 16v32c0 9-7 16-16 16m-414 0H37c-9 0-16-7-16-16v-32c0-9 7-16 16-16h32c9 0 16 7 16 16v32c0 9-7 16-16 16m0-143H37c-9 0-16-7-16-16v-32c0-9 7-16 16-16h32c9 0 16 7 16 16v32c0 9-7 16-16 16m0 286H37c-9 0-16-7-16-16v-32c0-9 7-16 16-16h32c9 0 16 7 16 16v32c0 9-7 16-16 16m414 0H164c-9 0-16-7-16-16v-32c0-9 7-16 16-16h319c9 0 16 7 16 16v32c0 9-7 16-16 16"/></svg>