<?xml version="1.0" encoding="UTF-8"?><svg id="Layer_1" xmlns="http://www.w3.org/2000/svg" width="52" height="52" viewBox="0 0 52 52"><path d="M27.29,23.69c.32,0,.64.32.64.71v5.16c0,.32.26.58.65.58.32,0,.65.32.65.71v1.29c0,.32-.26.58-.65.58h-5.16c-.32,0-.65-.19-.65-.58v-1.29c0-.32.26-.71.65-.71.32,0,.64-.19.64-.58v-2.58c0-.32-.26-.71-.64-.71-.32,0-.65-.19-.65-.58v-1.29c0-.32.26-.71.65-.71,0,0,3.87,0,3.87,0ZM26,18.59c1.1,0,1.94.84,1.94,1.94s-.84,1.94-1.94,1.94-1.94-.84-1.94-1.94.84-1.94,1.94-1.94ZM24.37,2.37c.98-.49,2.28-.49,3.26,0l19.07,9.37c1.3.65,2.12,1.96,2.12,3.34v21.84c0,1.47-.82,2.77-2.12,3.34l-19.07,9.37c-1.06.49-2.28.49-3.34,0l-18.99-9.37c-1.3-.65-2.12-1.96-2.12-3.34V15.08c0-1.47.82-2.77,2.12-3.34L24.37,2.37ZM26,13.27c-7.06,0-12.73,5.68-12.73,12.73s5.68,12.73,12.73,12.73,12.73-5.68,12.73-12.73-5.68-12.73-12.73-12.73Z" fill="#fff"/></svg>