<?xml version="1.0" encoding="UTF-8"?><svg id="Layer_1" xmlns="http://www.w3.org/2000/svg" width="52" height="52" viewBox="0 0 52 52"><path d="M47.24,21.26c-.85-.52-1.83-.8-2.83-.8s-1.98.28-2.83.8c-.8.56-1.52,1.36-2,2.23H12.44c-.39-.85-.99-1.58-1.74-2.13-.76-.55-1.64-.88-2.57-.98-.93-.1-1.87.05-2.72.43-.85.38-1.59.97-2.15,1.72-.59.73-.99,1.6-1.15,2.53-.16.93-.09,1.88.21,2.77.3.89.83,1.69,1.52,2.33.7.64,1.54,1.09,2.46,1.31,1.2.32,2.39.16,3.51-.4,1.2-.48,2.08-1.36,2.63-2.47h27.14c.45.88,1.12,1.62,1.95,2.15.83.53,1.78.84,2.76.88.98.03,1.95-.21,2.81-.68.86-.48,1.57-1.18,2.06-2.03.39-.63.65-1.34.76-2.07s.08-1.48-.1-2.2c-.18-.72-.5-1.4-.94-1.99-.44-.6-1-1.1-1.64-1.47v.08ZM47.24,2.9c-.85-.52-1.83-.8-2.83-.8s-1.98.28-2.83.8c-.8.56-1.52,1.36-2,2.23H12.44c-.39-.85-.99-1.58-1.74-2.13-.76-.55-1.64-.88-2.57-.98-.93-.1-1.87.05-2.72.43-.85.38-1.59.97-2.15,1.72-.59.73-.99,1.6-1.15,2.53-.16.93-.09,1.88.21,2.77.3.89.83,1.69,1.52,2.33.7.64,1.54,1.09,2.46,1.31,1.2.32,2.39.16,3.51-.4,1.2-.48,2.08-1.36,2.63-2.47h27.14c.45.88,1.12,1.62,1.95,2.15.83.53,1.78.84,2.76.88.98.03,1.95-.21,2.81-.68.86-.48,1.57-1.18,2.06-2.03.39-.63.65-1.34.76-2.07.11-.73.08-1.48-.1-2.2-.18-.72-.5-1.4-.94-1.99-.44-.6-1-1.1-1.64-1.47v.08ZM47.24,39.62c-.85-.52-1.83-.8-2.83-.8s-1.98.28-2.83.8c-.8.56-1.52,1.36-2,2.23H12.44c-.39-.85-.99-1.58-1.74-2.13-.76-.55-1.64-.88-2.57-.98-.93-.1-1.87.05-2.72.43-.85.38-1.59.97-2.15,1.72-.59.73-.99,1.6-1.15,2.53-.16.93-.09,1.88.21,2.77.3.89.83,1.69,1.52,2.33.7.64,1.54,1.09,2.46,1.31,1.2.32,2.39.16,3.51-.4,1.2-.48,2.08-1.36,2.63-2.47h27.14c.45.88,1.12,1.62,1.95,2.15.83.53,1.78.84,2.76.88.98.03,1.95-.21,2.81-.68.86-.48,1.57-1.18,2.06-2.03.39-.63.65-1.34.76-2.07s.08-1.48-.1-2.2c-.18-.72-.5-1.4-.94-1.99-.44-.6-1-1.1-1.64-1.47v.08Z" fill="#fff"/></svg>