<svg xmlns="http://www.w3.org/2000/svg" height="52" width="52" viewBox="0 0 520 520" fill="#fff"><path d="M36 386h40c9 0 16-7 16-16V122c0-9-7-16-16-16H36c-9 0-16 7-16 16v248c0 9 7 16 16 16m448-280h-40c-9 0-16 7-16 16v248c0 9 7 16 16 16h40c9 0 16-7 16-16V122c0-9-7-16-16-16M284 386c9 0 16-7 16-16V122c0-9-7-16-16-16h-48c-9 0-16 7-16 16v248c0 9 7 16 16 16zm96 0c9 0 16-7 16-16V122c0-9-7-16-16-16h-16c-9 0-16 7-16 16v248c0 9 7 16 16 16zm-208 0c9 0 16-7 16-16V122c0-9-7-16-16-16h-16c-9 0-16 7-16 16v248c0 9 7 16 16 16zm312 48H36c-9 0-16 7-16 16v16c0 9 7 16 16 16h448c9 0 16-7 16-16v-16c0-9-7-16-16-16m0-416H36c-9 0-16 7-16 16v16c0 9 7 16 16 16h448c9 0 16-7 16-16V34c0-9-7-16-16-16"/></svg>