<svg xmlns="http://www.w3.org/2000/svg" height="52" width="52" viewBox="0 0 520 520" fill="#fff"><path d="m490.4 237.5-29.5-13.6c-4-2.4-9.6-2.4-13.6 0l-87.7 42.3a144.4 144.4 0 0 1 113.3 10.3l16.8-8c13.6-7.2 13.6-24.7.8-31.1ZM30.2 155.3 244 256.6a35.4 35.4 0 0 0 31.1 0l214.6-101.3a16.1 16.1 0 0 0 0-29.5L275.1 24.5a35.4 35.4 0 0 0-31.1 0L30.2 126.6a15.2 15.2 0 0 0 0 28.7m0 111.7L244 369.1a29 29 0 0 0 18.3 3.2 143 143 0 0 1 63-90.9l-49.5 23.9a35.4 35.4 0 0 1-31.1 0L73.2 223.9c-4-2.4-9.6-2.4-13.6 0l-29.5 13.6c-13.6 6.4-13.6 23.1 0 29.5Zm229.7 153.9c-5.6 0-10.4-1.6-15.2-3.2L72.4 335.5c-4-2.4-9.6-2.4-13.6 0l-28.7 13.6a16.1 16.1 0 0 0 0 29.5l213.8 102.1a35.4 35.4 0 0 0 31.1 0l4.8-2.4a144.5 144.5 0 0 1-19.9-57.4m145.2-111.6c-51.8 0-94.9 42.3-94.9 94.9s42.3 94.9 94.9 94.9 94.9-42.3 94.9-94.9-43.1-94.9-94.9-94.9m75 85.3h-24.7c-.8-22.3-6.4-42.3-13.6-56.6a77.5 77.5 0 0 1 38.3 56.6m-84.6-62.2v62.2H374c1.6-29.5 10.4-52.6 21.5-62.2m0 81.4V476c-10.4-8.8-19.9-32.7-21.5-62.2zm19.1 62.2v-62.2h21.5c-1.6 29.5-11.2 53.4-21.5 62.2m0-81.4v-62.2c10.4 8.8 19.9 32.7 21.5 62.2zM368.4 338c-8 15.2-12 34.3-13.6 56.6h-24.7a75 75 0 0 1 38.3-56.6m-38.3 75.8h24.7c.8 22.3 6.4 42.3 13.6 56.6a72.8 72.8 0 0 1-38.3-56.6m111.7 56.6c8-15.2 12-34.3 13.6-56.6h24.7a74.3 74.3 0 0 1-38.3 56.6"/></svg>