<svg xmlns="http://www.w3.org/2000/svg" height="52" width="52" viewBox="0 0 520 520" fill="#fff"><path d="M259 20a48.9 48.9 0 0 0-24.4 91.3v31h-61.2a134.6 134.6 0 0 0-42.8 262.2v34.3a61.2 61.2 0 0 0 61.2 61.2h137.6a61.2 61.2 0 0 0 61.2-61.2v-35.3a134.7 134.7 0 0 0-45.9-261.2h-61.2v-31A49.1 49.1 0 0 0 308 68.9 48.9 48.9 0 0 0 259.1 20zM87.8 276.9a85.6 85.6 0 0 1 85.6-85.6h171.3a85.6 85.6 0 1 1 0 171.2H173.4a85.6 85.6 0 0 1-85.6-85.6m72.2 40.4c16.7 0 29.4-17.7 29.4-39.3s-12.7-39.3-29.4-39.3-29.4 17.7-29.4 39.3 12.7 39.3 29.4 39.3M388.2 278c0 21.6-12.7 39.3-29.4 39.3s-29.4-17.7-29.4-39.3 12.7-39.3 29.4-39.3 29.4 17.7 29.4 39.3"/></svg>