<?xml version="1.0" encoding="UTF-8"?><svg id="a" xmlns="http://www.w3.org/2000/svg" width="52" height="52" viewBox="0 0 52 52"><path d="M45.2,14.8c2.64,0,4.8,2.16,4.8,4.8v25.6c0,2.64-2.16,4.8-4.8,4.8H6.8c-2.64,0-4.8-2.16-4.8-4.8v-25.6c0-2.64,2.16-4.8,4.8-4.8h38.4ZM43.92,40.84c-1.84-4-6.56-11.2-15.12-6.8-1.12.64-5.5,2.63-5.52,2.64l-4.4,1.92c-2.16,1.2-6.88-.4-9.68-1.52-.8-.4-1.52.64-1.12,1.44,1.76,4,6.48,11.2,15.12,6.8,5.34-2.71,9.88-4.47,9.92-4.48,2.16-1.2,6.88.4,9.68,1.52.8.32,1.52-.64,1.12-1.52ZM43.92,27.64c-1.84-4-6.56-11.2-15.12-6.8-1.12.64-5.49,2.63-5.52,2.64l-4.4,1.92c-2.16,1.2-6.88-.4-9.68-1.52-.8-.4-1.52.64-1.12,1.44,1.76,4,6.48,11.2,15.12,6.8,5.32-2.7,9.86-4.46,9.92-4.48,2.16-1.2,6.88.4,9.68,1.52.8.32,1.52-.64,1.12-1.52ZM31.6,2c2.64,0,4.8,2.16,4.8,4.8v2.4c0,.48-.32.8-.8.8h-3.2c-.48,0-.8-.32-.8-.8v-2.4h-11.2v2.4c0,.48-.32.8-.8.8h-3.2c-.48,0-.8-.32-.8-.8v-2.4c0-2.64,2.16-4.8,4.8-4.8h11.2Z" fill="#fff"/></svg>