<svg xmlns="http://www.w3.org/2000/svg" height="52" width="52" viewBox="0 0 520 520" fill="#fff"><path d="M210.8 234.1a42.8 42.8 0 0 1 1.8-85.6c23.3.5 42 19.5 41.9 42.9a43.3 43.3 0 0 1-43.7 42.7m267.9 71.5-58.2-86.4V212a192 192 0 0 0-191-192 180 180 0 0 0-45.4 5.6A191 191 0 0 0 38.6 212a176 176 0 0 0 28.6 101.6c33.4 48 56 86.4 42.2 138.4a36.8 36.8 0 0 0 7.2 33.6A35.6 35.6 0 0 0 146 500h156.8a37.8 37.8 0 0 0 37.3-30.4c.9-3.1 1.5-6.3 1.6-9.6a18.9 18.9 0 0 1 19.1-16h11.3a37.8 37.8 0 0 0 37.4-27.2c7-25 10.9-50.8 11.8-76.8h41.4a22.1 22.1 0 0 0 17.5-12.8 23 23 0 0 0-1.5-21.6m-158.7-67-8 12.6a17.6 17.6 0 0 1-14.1 7.5 20 20 0 0 1-5.8-1.3l-21.2-8a92 92 0 0 1-30.8 17.6l-3.8 23.3a16.1 16.1 0 0 1-16 13.2h-16a16.1 16.1 0 0 1-16-13.2l-3.8-23.3a79 79 0 0 1-29.5-16l-22.5 8c-1.8.7-3.8 1.2-5.8 1.3-5.8 0-11.1-3.1-14.1-8l-8-13.2a15.6 15.6 0 0 1 3.8-20.1l18.6-15.1a71.4 71.4 0 0 1 0-33L108.8 155a15.4 15.4 0 0 1-3.8-20.1l8-13.2a16 16 0 0 1 14.1-8 20 20 0 0 1 5.8 1.3l22.5 8a94 94 0 0 1 29.5-17l3.2-22.1a15.4 15.4 0 0 1 16-12.6h16c7.5-.5 14.3 4.6 16 11.9l3.8 22.6a89 89 0 0 1 29.5 16l22.5-8c1.8-.7 3.8-1.2 5.8-1.3 5.8 0 11.1 3.1 14.1 8l8 13.2a16 16 0 0 1-3.7 20.5l-18.6 15.1a75 75 0 0 1 1.9 17c0 5.4-.7 10.8-1.9 16l18.6 15.4a16 16 0 0 1 3.9 20.7z"/></svg>