<?xml version="1.0" encoding="UTF-8"?><svg id="a" xmlns="http://www.w3.org/2000/svg" width="52" height="52" viewBox="0 0 52 52"><path d="M31.34,11.35c6.09,0,10.66,4.5,10.66,10.49,0,4.42-1.54,7.98-3.78,10.33,1.17.29,2.32.67,3.42,1.15,3.29,1.42,6.27,3.76,7.88,7.33.97,2.16.39,4.28-.91,5.75-1.25,1.41-3.18,2.26-5.19,2.26h-24.15c-2.01,0-3.94-.85-5.19-2.26-1.3-1.47-1.88-3.59-.91-5.75,1.61-3.58,4.6-5.91,7.88-7.33,1.1-.48,2.25-.85,3.41-1.14-2.25-2.35-3.78-5.91-3.78-10.34,0-6,4.57-10.49,10.66-10.49ZM31.34,35.33c-2.91,0-6.04.5-8.71,1.66-2.66,1.15-4.73,2.88-5.83,5.3-.24.53-.15,1,.26,1.45.45.51,1.27.92,2.2.92h24.15c.93,0,1.75-.41,2.2-.92.4-.45.5-.92.26-1.45-1.09-2.42-3.17-4.16-5.83-5.3-2.67-1.15-5.8-1.66-8.71-1.66h.01ZM20.99,3.35c.66,0,1.3.04,1.91.13,1.09.15,1.86,1.16,1.71,2.25-.15,1.09-1.16,1.86-2.25,1.71-.43-.06-.88-.09-1.37-.09-4.56,0-7.02,3.18-7.02,6.66,0,2.58.86,5.23,3.58,8.78.04.05.08.11.11.17.02.03.03.05.04.08.03.06.06.12.09.18.03.07.05.14.07.21.02.06.03.11.04.17,0,.03.02.07.03.1v.11c0,.05.01.11.01.16,0,.08,0,.16-.01.23,0,.05,0,.1-.02.15-.01.07-.03.14-.05.21-.01.05-.03.1-.05.15-.02.06-.05.13-.08.19-.03.05-.05.11-.08.16-.04.06-.08.11-.12.17-.04.05-.07.1-.11.14,0,.02-.03.03-.04.05-.06.07-.13.13-.21.19,0,0-.01,0-.02.01-.02,0-.04.03-.05.04-.09.06-.18.12-.27.16-.11.05-.23.1-.36.13l-.2.04s-.03,0-.05.01c-.05,0-.14.03-.24.05-.22.05-.56.13-.97.25-.83.24-1.95.63-3.14,1.24-2.39,1.23-4.83,3.23-5.83,6.45-.09.3-.03.56.21.82.27.29.75.53,1.31.53h.59c1.1,0,2,.9,2,2s-.9,2-2,2h-.59c-1.64,0-3.21-.68-4.26-1.83-1.09-1.19-1.64-2.9-1.08-4.7,1.43-4.64,4.91-7.33,7.82-8.83.95-.49,1.86-.86,2.66-1.14-1.91-3.07-2.74-5.88-2.74-8.82,0-5.54,4.1-10.66,11.02-10.66h.01ZM31.34,15.35c-3.94,0-6.66,2.77-6.66,6.5,0,6.66,4.11,9.49,6.66,9.5,2.55,0,6.66-2.84,6.66-9.5,0-3.73-2.72-6.5-6.66-6.5Z" fill="#fff"/></svg>