<?xml version="1.0" encoding="UTF-8"?><svg id="a" xmlns="http://www.w3.org/2000/svg" width="52" height="52" viewBox="0 0 52 52"><path d="M26,2c6.27,0,12.08,2.79,16.3,6.83,4.21,4.03,7.01,9.48,7.01,15.03v12.43h0c0,.19,0,.39,0,.58v1.58c0,6.09-4.34,11.55-10.29,11.55h-1.37c-2.91,0-4.8-2.62-4.8-5.23v-14.24c0-2.59,1.88-5.23,4.8-5.23h1.37c2.37,0,4.49.86,6.17,2.3v-3.76c0-4.18-2.16-8.62-5.74-12.05-3.57-3.43-8.4-5.68-13.45-5.68s-9.88,2.25-13.45,5.68c-3.59,3.44-5.74,7.88-5.74,12.05v3.76c1.69-1.43,3.8-2.3,6.17-2.3h1.37c2.91,0,4.8,2.62,4.8,5.23v14.24c0,2.59-1.88,5.23-4.8,5.23h-1.37c-5.94,0-10.29-5.46-10.29-11.55v-1.58c0-.19,0-.39,0-.58h0v-12.43c0-5.54,2.81-10.99,7.01-15.03,4.22-4.04,10.02-6.83,16.3-6.83ZM12.98,29.43c-3.14,0-6.17,3.04-6.17,7.44v1.58c0,4.39,3.03,7.44,6.17,7.44h1.37c.09,0,.22-.04.39-.21.17-.18.3-.5.3-.89v-14.24c0-.4-.14-.71-.3-.89-.16-.18-.3-.21-.39-.21h-1.37ZM37.66,29.43c-.09,0-.22.04-.39.21-.17.18-.3.5-.3.89v14.24c0,.4.14.71.3.89.16.18.3.21.39.21h1.37c3.14,0,6.17-3.04,6.17-7.44v-1.58c0-4.39-3.03-7.44-6.17-7.44h-1.37Z" fill="#fff"/></svg>