<?xml version="1.0" encoding="UTF-8"?><svg id="a" xmlns="http://www.w3.org/2000/svg" width="52" height="52" viewBox="0 0 52 52"><path d="M22.92,49.18c4.61.93,9.36.93,13.98,0l.16-.03c5.2-1.04,9.28-5.08,10.37-10.27l2.4-11.42c1.1-5.25-3.37-9.98-8.67-9.17l-6.78,1.04,1.71-5.11s0-.04.02-.06l1.02-3.4c.91-3.04-.43-6.29-3.21-7.81-3.44-1.88-7.75-.42-9.34,3.16l-.53,1.19c-1.81,4.06-4.54,7.64-7.97,10.45H4.09c-.55,0-1.09.22-1.48.61-.29.29-.49.67-.57,1.07l-.04.41v22.6c0,4.09,3.32,7.4,7.4,7.4h6.55c1,0,1.84-.71,2.04-1.65l4.92.99h.01ZM36.08,45.08c-4.07.81-8.26.81-12.33,0l-5.7-1.14v-22.39l.39-.31c4.07-3.26,7.31-7.45,9.43-12.22l.53-1.19c.6-1.34,2.22-1.89,3.51-1.19,1.05.57,1.55,1.79,1.21,2.94l-1,3.33-2.79,8.36c-.23.69-.08,1.45.39,2.01.47.56,1.2.83,1.92.72l10.17-1.56c2.41-.37,4.45,1.78,3.94,4.17l-2.4,11.42c-.75,3.55-3.54,6.31-7.1,7.03l-.16.03h0ZM9.4,45.65c-1.78,0-3.22-1.44-3.22-3.22v-20.5h7.67v23.72h-4.46.01Z" fill="#fff"/></svg>