<?xml version="1.0" encoding="UTF-8"?><svg id="a" xmlns="http://www.w3.org/2000/svg" width="52" height="52" viewBox="0 0 52 52"><path d="M29.44,2c3.41,0,6.17,2.76,6.17,6.17v.69h6.17c3.41,0,6.17,2.76,6.17,6.17v4.11c0,1.14-.92,2.06-2.06,2.06h-2.06v22.63c0,3.41-2.76,6.17-6.17,6.17H14.35c-3.41,0-6.17-2.76-6.17-6.17v-22.63h-2.06c-1.14,0-2.06-.92-2.06-2.06v-4.11c0-3.41,2.76-6.17,6.17-6.17h6.17v-.69c0-3.41,2.76-6.17,6.17-6.17,0,0,6.87,0,6.87,0ZM12.3,43.83c0,1.14.92,2.06,2.06,2.06h23.31c1.14,0,2.06-.92,2.06-2.06v-22.63H12.3v22.63ZM21.21,25.31c1.14,0,2.06.92,2.06,2.06v12.34c0,1.14-.92,2.06-2.06,2.06s-2.06-.92-2.06-2.06v-12.34c0-1.14.92-2.06,2.06-2.06ZM30.81,25.31c1.14,0,2.06.92,2.06,2.06v12.34c0,1.14-.92,2.06-2.06,2.06s-2.06-.92-2.06-2.06v-12.34c0-1.14.92-2.06,2.06-2.06ZM10.24,12.97c-1.14,0-2.06.92-2.06,2.06v2.06h35.66v-2.06c0-1.14-.92-2.06-2.06-2.06,0,0-31.54,0-31.54,0ZM22.58,6.11c-1.14,0-2.06.92-2.06,2.06v.69h10.97v-.69c0-1.14-.92-2.06-2.06-2.06h-6.86s.01,0,0,0Z" fill="#fff"/></svg>