<svg xmlns="http://www.w3.org/2000/svg" height="52" width="52" viewBox="0 0 520 520" fill="#fff"><path fill-rule="evenodd" d="M252 46c2-12-6-24-18-26s-24 6-26 18l-17 101H73c-12 0-22 10-22 22s10 22 22 22h110l-28 165H43c-12 0-22 10-22 22s10 22 22 22h104l-14 79c-2 12 6 24 18 26s24-6 26-18l15-86h97l-14 79c-2 12 6 24 18 26s24-6 26-18l15-86h113c12 0 22-10 22-22s-10-22-22-22H342l28-165h107c12 0 22-10 22-22s-10-22-22-22h-99l16-94c2-12-6-24-18-26s-24 6-26 18l-17 101h-97zm45 304 28-165h-97l-28 165z"/></svg>