<svg xmlns="http://www.w3.org/2000/svg" height="52" width="52" viewBox="0 0 520 520" fill="#fff"><path d="M96 28a50 50 0 0 0-54 0c-8 5-14 13-18 23-3 9-4 19-2 29 2 9 8 18 15 24v364c0 18 14 32 32 32s32-14 32-32V104a47 47 0 0 0 13-53c-3-9-10-17-18-23m392 78c-67 35-123 19-178 3-48-14-96-27-151-7-6 2-10 8-10 15v206c0 10 10 18 21 15 51-15 96-3 141 10 56 16 113 32 182-6 5-2 8-8 8-14V114c0-6-6-10-12-7zm-73 105-42 43 10 61c0 7-6 12-11 9l-52-29-52 29c-6 3-13-2-11-9l10-61-42-43c-5-5-2-13 4-14l58-9 26-55a8 8 0 0 1 14 0l26 55 58 9c7 0 9 10 4 14m-59 8h-22v-22c0-1-3-2-7-2h-14c-4 0-7 1-7 2v22h-22c-1 0-2 3-2 7v14c0 4 1 7 2 7h22v22c0 1 3 2 7 2h14c4 0 7-1 7-2v-22h22c1 0 2-3 2-7v-14c0-4-1-7-2-7"/></svg>