<svg xmlns="http://www.w3.org/2000/svg" height="52" width="52" viewBox="0 0 520 520" fill="#fff"><path d="M254.2 475a159.1 159.1 0 0 1-30.8-55.8c-6-18.6-7.8-37.7-8.2-57.1-.3-15.7 2.2-31 6.8-46 5.2-17 13-32.5 25.2-45.6l26.8-29a140.4 140.4 0 0 0 38.7-91.8c1.1-19.6-1.3-38.8-8.5-57.2a103.4 103.4 0 0 0-96.6-66.3c-26.1 0-52.5 10-71.3 28.3A104.6 104.6 0 0 0 110.9 95a135.6 135.6 0 0 0-3.6 84 109.7 109.7 0 0 0 30.5 50.6 74.8 74.8 0 0 1 21.3 32.5 37.6 37.6 0 0 1-7.5 37.3 63.1 63.1 0 0 1-20.4 15l-39.7 19a207.8 207.8 0 0 0-42 25.8A92.3 92.3 0 0 0 22 393.4a70.8 70.8 0 0 0-.2 61.9 56.5 56.5 0 0 0 52.4 34.3c30.2.5 60.3.1 90.5.1v-.2h93c2.4-.3 3.3-1.5 2.8-3.8-.3-1.3-.7-2.6-1.4-3.7a58 58 0 0 0-4.9-7m119-228.4a121.65 121.65 0 1 0-.3 243.3 121.65 121.65 0 0 0 .3-243.3m43.9 186.5h-87.6a13 13 0 0 1-12.6-12.6c0-2.8 1.5-4.5 4.3-4.7h102l2.5.1c2.2.3 3.7 1.9 3.7 4.1.3 6.9-5.4 13.1-12.3 13.1m21-35.5c0 3.7-1.6 5.3-5.3 5.3h-59.7l-.2.3H314c-4.5 0-5.8-1.3-5.8-5.9v-6.5c0-8.1 5.5-13.7 13.6-13.7 7.3-.1 14.5-.5 21.7 0 7.7.5 15.9-5.4 14.2-16.4a42 42 0 0 0-6.2-17.2c-3-4.6-4.5-9.4-4.4-14.9.3-12.7 11-24.1 23.7-25.1 14-1.1 25.2 7.3 27.9 21.1a23 23 0 0 1-3 17.2 44 44 0 0 0-6.9 17.1c-.5 3.9-1 7.7 1.1 11.3 2.6 4.2 6.2 6.7 11.2 6.7h22.8c8.7 0 14.2 5.4 14.2 14.2z"/></svg>