<svg xmlns="http://www.w3.org/2000/svg" height="52" width="52" viewBox="0 0 520 520" fill="#fff"><path d="M465 20H55c-8 0-15 7-15 15v50c0 8 7 15 15 15h410c8 0 15-7 15-15V35c0-8-7-15-15-15M145 140H55c-8 0-15 7-15 15v30c0 8 7 15 15 15h90c8 0 15-7 15-15v-30c0-8-7-15-15-15m160 0h-90c-8 0-15 7-15 15v30c0 8 7 15 15 15h90c8 0 15-7 15-15v-30c0-8-7-15-15-15m160 0h-90c-8 0-15 7-15 15v30c0 8 7 15 15 15h90c8 0 15-7 15-15v-30c0-8-7-15-15-15M145 240H55c-8 0-15 7-15 15v30c0 8 7 15 15 15h90c8 0 15-7 15-15v-30c0-8-7-15-15-15m160 0h-90c-8 0-15 7-15 15v30c0 8 7 15 15 15h90c8 0 15-7 15-15v-30c0-8-7-15-15-15m160 0h-90c-8 0-15 7-15 15v30c0 8 7 15 15 15h90c8 0 15-7 15-15v-30c0-8-7-15-15-15M145 340H55c-8 0-15 7-15 15v30c0 8 7 15 15 15h90c8 0 15-7 15-15v-30c0-8-7-15-15-15m160 0h-90c-8 0-15 7-15 15v30c0 8 7 15 15 15h90c8 0 15-7 15-15v-30c0-8-7-15-15-15m160 0h-90c-8 0-15 7-15 15v30c0 8 7 15 15 15h90c8 0 15-7 15-15v-30c0-8-7-15-15-15M145 440H55c-8 0-15 7-15 15v30c0 8 7 15 15 15h90c8 0 15-7 15-15v-30c0-8-7-15-15-15m160 0h-90c-8 0-15 7-15 15v30c0 8 7 15 15 15h90c8 0 15-7 15-15v-30c0-8-7-15-15-15m160 0h-90c-8 0-15 7-15 15v30c0 8 7 15 15 15h90c8 0 15-7 15-15v-30c0-8-7-15-15-15"/></svg>