<?xml version="1.0" encoding="UTF-8"?><svg id="Layer_1" xmlns="http://www.w3.org/2000/svg" width="52" height="52" viewBox="0 0 52 52"><path d="M38.97,27.72c-6.06,0-11.13,4.97-11.13,11.13,0,2.19.7,4.27,1.79,6.06h-7.16c1.19-1.79,1.79-3.78,1.79-6.06,0-6.06-4.97-11.13-11.13-11.13s-11.13,4.97-11.13,11.13,4.97,11.13,11.13,11.13h25.74c6.06,0,11.13-4.97,11.13-11.13.1-6.16-4.87-11.13-11.03-11.13ZM7.36,38.76c0-3.28,2.68-5.96,5.86-5.96s5.86,2.68,5.86,5.96-2.68,5.96-5.86,5.96-5.86-2.58-5.86-5.96ZM38.97,44.81c-3.28,0-5.86-2.68-5.86-5.96s2.68-5.96,5.86-5.96,5.86,2.68,5.86,5.96c.1,3.28-2.58,5.96-5.86,5.96ZM27.54,2.01c.41.02.8.18,1.09.46.29.28.46.65.48,1.04v13c-.03.21,0,.43.12.61.11.19.28.33.49.42.21.08.44.1.65.05.22-.05.41-.17.55-.33l3.78-3.59c.29-.27.69-.43,1.1-.43s.81.15,1.1.43l2.36,2.09c.14.13.25.29.33.46.08.17.12.36.12.55s-.04.37-.12.55c-.08.17-.19.33-.33.46l-12.21,11.2c-.15.15-.32.26-.52.34-.2.08-.41.12-.62.12s-.43-.04-.62-.12c-.2-.08-.37-.2-.52-.34l-12.05-11.2c-.14-.13-.25-.29-.33-.46-.08-.17-.12-.36-.12-.55s.04-.37.12-.55.19-.33.33-.46l2.21-2.09c.15-.15.32-.26.52-.34.2-.08.41-.12.62-.12s.43.04.62.12c.2.08.37.2.52.34l3.78,3.51c.14.13.32.22.52.25.19.04.4.02.58-.06.18-.07.34-.19.45-.35.11-.15.18-.34.18-.52V3.5c.04-.4.23-.77.53-1.04.3-.27.7-.44,1.12-.45h3.15Z" fill="#fff" fill-rule="evenodd"/></svg>