<svg xmlns="http://www.w3.org/2000/svg" height="52" width="52" viewBox="0 0 520 520" fill="#fff"><path d="M243 434H35c-9 0-16-7-16-16v-32c0-9 7-16 16-16h207c9 0 16 7 16 16v32c1 8-5 15-14 16zm0-286H35c-9 0-16-7-16-16v-32c0-9 7-16 16-16h207c9 0 16 7 16 16v32c1 8-5 15-14 16zm108 245a15 15 0 0 0 21 0l122-122a15 15 0 0 0 2-21l-2-1-122-123a15 15 0 0 0-21-1l-2 1-22 23a15 15 0 0 0-2 20l2 2 38 38c4 5 4 12 0 16-1 1-4 3-7 3H37c-9 0-17 7-17 16v32c1 9 8 15 17 16h323a11 11 0 0 1 10 10c0 3-1 6-3 8l-38 38a15 15 0 0 0-2 21l2 1z"/></svg>