<svg xmlns="http://www.w3.org/2000/svg" height="100" width="100" viewBox="0 0 100 100" fill="#fff"><path d="M38 30h4a1 1 0 0 0 1-1v-3h14v3a1 1 0 0 0 1 1h4a1 1 0 0 0 1-1v-3a6 6 0 0 0-6-6H43a6 6 0 0 0-6 6v3a1 1 0 0 0 1 1m36 6H26a6 6 0 0 0-6 6v32a6 6 0 0 0 6 6h48a6 6 0 0 0 6-6V42a6 6 0 0 0-6-6M50 72c-7.7 0-14-6.3-14-14s6.3-14 14-14 14 6.3 14 14-6.3 14-14 14m6-17h-3v-3a2 2 0 0 0-2-2h-2a2 2 0 0 0-2 2v3h-3a2 2 0 0 0-2 2v2c0 1.1.9 2 2 2h3v3c0 1.1.9 2 2 2h2a2 2 0 0 0 2-2v-3h3a2 2 0 0 0 2-2v-2a2 2 0 0 0-2-2"/></svg>